<mxfile host="Electron" modified="2024-06-05T13:02:59.116Z" agent="Mozilla/5.0 (Macintosh; Intel Mac OS X 10_15_7) AppleWebKit/537.36 (KHTML, like Gecko) draw.io/24.4.13 Chrome/124.0.6367.207 Electron/30.0.6 Safari/537.36" etag="xosqatkiGBkOAX7tuGOn" version="24.4.13" type="device">
  <diagram name="Страница — 1" id="odj48SOeiG__KXEs9iDG">
    <mxGraphModel dx="765" dy="496" grid="1" gridSize="10" guides="1" tooltips="1" connect="1" arrows="1" fold="1" page="1" pageScale="1" pageWidth="827" pageHeight="1169" math="0" shadow="0">
      <root>
        <mxCell id="0" />
        <mxCell id="1" parent="0" />
        <mxCell id="lswf5cLPki-qcaa0VPuv-52" value="" style="ellipse;whiteSpace=wrap;html=1;fontSize=18;fillColor=strokeColor;fontColor=#ffffff;rounded=1;" vertex="1" parent="1">
          <mxGeometry x="40" y="40" width="40" height="40" as="geometry" />
        </mxCell>
        <mxCell id="lswf5cLPki-qcaa0VPuv-60" value="Looking for Galaxy and Proxy Super" style="shape=rect;rounded=1;html=1;whiteSpace=wrap;align=center;" vertex="1" parent="1">
          <mxGeometry x="120" y="40" width="100" height="40" as="geometry" />
        </mxCell>
        <mxCell id="lswf5cLPki-qcaa0VPuv-61" value="" style="edgeStyle=none;html=1;endArrow=open;endSize=12;strokeWidth=3;verticalAlign=bottom;rounded=1;" edge="1" parent="1" source="lswf5cLPki-qcaa0VPuv-52" target="lswf5cLPki-qcaa0VPuv-60">
          <mxGeometry x="0.0053" width="160" relative="1" as="geometry">
            <mxPoint x="410" y="330" as="sourcePoint" />
            <mxPoint x="570" y="330" as="targetPoint" />
            <mxPoint as="offset" />
          </mxGeometry>
        </mxCell>
        <mxCell id="lswf5cLPki-qcaa0VPuv-67" value="trigger[guard]/activity" style="edgeStyle=none;html=1;endArrow=open;endSize=12;strokeWidth=3;verticalAlign=bottom;rounded=0;" edge="1" parent="1" source="lswf5cLPki-qcaa0VPuv-60">
          <mxGeometry width="160" relative="1" as="geometry">
            <mxPoint x="120" y="110" as="sourcePoint" />
            <mxPoint x="280" y="110" as="targetPoint" />
          </mxGeometry>
        </mxCell>
      </root>
    </mxGraphModel>
  </diagram>
</mxfile>
